<svg width="29" height="29" viewBox="0 0 29 29" fill="none" xmlns="http://www.w3.org/2000/svg">
<path d="M24.9298 20.044C24.2887 18.9406 23.336 15.8288 23.336 11.7812C23.336 9.43781 22.405 7.19036 20.748 5.5333C19.0909 3.87624 16.8435 2.94531 14.5 2.94531C12.1566 2.94531 9.90913 3.87624 8.25207 5.5333C6.59501 7.19036 5.66408 9.43781 5.66408 11.7812C5.66408 15.8299 4.71025 18.9406 4.06908 20.044C3.9284 20.2849 3.85376 20.5586 3.85267 20.8376C3.85159 21.1165 3.92411 21.3909 4.06291 21.6328C4.20171 21.8748 4.40188 22.0759 4.64323 22.2158C4.88458 22.3557 5.15856 22.4295 5.43752 22.4297H10.2497C10.4148 23.4373 10.9327 24.3534 11.7108 25.0144C12.489 25.6754 13.4767 26.0384 14.4978 26.0384C15.5188 26.0384 16.5066 25.6754 17.2847 25.0144C18.0629 24.3534 18.5807 23.4373 18.7458 22.4297H23.5625C23.8413 22.4291 24.115 22.355 24.356 22.215C24.597 22.0749 24.7969 21.8738 24.9354 21.6319C25.074 21.3899 25.1463 21.1158 25.1451 20.837C25.1439 20.5583 25.0693 20.2847 24.9287 20.044H24.9298ZM14.5 24.6953C13.8372 24.6951 13.1939 24.4713 12.674 24.0602C12.1541 23.6491 11.7881 23.0746 11.6351 22.4297H17.3649C17.2119 23.0746 16.8459 23.6491 16.3261 24.0602C15.8062 24.4713 15.1628 24.6951 14.5 24.6953ZM23.7562 20.957C23.7376 20.9917 23.7098 21.0206 23.6758 21.0406C23.6418 21.0606 23.603 21.0709 23.5637 21.0703H5.43752C5.39813 21.0709 5.35934 21.0606 5.32538 21.0406C5.29142 21.0206 5.2636 20.9917 5.24494 20.957C5.22506 20.9226 5.21459 20.8835 5.21459 20.8438C5.21459 20.804 5.22506 20.7649 5.24494 20.7305C6.10248 19.2578 7.02346 15.8243 7.02346 11.7812C7.02346 9.79834 7.81117 7.89665 9.21329 6.49452C10.6154 5.09239 12.5171 4.30469 14.5 4.30469C16.4829 4.30469 18.3846 5.09239 19.7867 6.49452C21.1889 7.89665 21.9766 9.79834 21.9766 11.7812C21.9766 15.8231 22.8987 19.2521 23.7562 20.7305C23.7761 20.7649 23.7866 20.804 23.7866 20.8438C23.7866 20.8835 23.7761 20.9226 23.7562 20.957Z" fill="#333333"/>
</svg>
